<svg xmlns="http://www.w3.org/2000/svg" viewBox="0 0 1077.16 340.16"><defs><style>.cls-1{fill:#32b6be;}.cls-2{fill:#fff;}</style></defs><g id="Layer_2" data-name="Layer 2"><g id="Layer_1-2" data-name="Layer 1"><rect class="cls-1" width="1077.16" height="340.16"/><path class="cls-2" d="M463.14,179.85A6.81,6.81,0,0,1,468,191.48c-.91,1.09-1.81,2.08-2.72,3q-7.92,7.4-21,7.39A31.47,31.47,0,0,1,422,148.17a30.32,30.32,0,0,1,22.25-9.2q13.05,0,21,7.34c.91.94,1.81,2,2.72,3A6.81,6.81,0,0,1,463.14,161q-2.82,0-6.23-3.19a17.84,17.84,0,1,0,0,25.2Q460.32,179.86,463.14,179.85Z"/><path class="cls-2" d="M499.33,201.86A23.52,23.52,0,1,1,516,195,22.73,22.73,0,0,1,499.33,201.86Zm7.41-16.17a10.49,10.49,0,1,0-7.41,3.07A10.06,10.06,0,0,0,506.74,185.69Z"/><path class="cls-2" d="M541.8,168.84v26.47a6.55,6.55,0,1,1-13.1,0V161.25a6.54,6.54,0,0,1,6.55-6.56q2.71,0,5.19,2.94a12.44,12.44,0,0,1,8.69-2.94c2.94,0,5.16.76,6.66,2.26a7.61,7.61,0,0,1,2.25,5.61,8.14,8.14,0,0,1-2,5.6,6.76,6.76,0,0,1-5.34,2.26,9.2,9.2,0,0,1-5.87-2C543.48,167.62,542.46,167.76,541.8,168.84Z"/><path class="cls-2" d="M585.82,201.86A23.52,23.52,0,1,1,602.51,195,22.73,22.73,0,0,1,585.82,201.86Zm7.41-16.17a10.49,10.49,0,1,0-7.41,3.07A10.06,10.06,0,0,0,593.23,185.69Z"/><path class="cls-2" d="M628.29,175.66v19.65a6.55,6.55,0,1,1-13.1,0V161.25a6.54,6.54,0,0,1,6.55-6.56,6.44,6.44,0,0,1,4.66,1.89l.21.32a20.62,20.62,0,0,1,9.54-2.21,20.84,20.84,0,0,1,21,21v19.65a6.55,6.55,0,1,1-13.1,0V175.66a7.86,7.86,0,1,0-15.72,0Z"/><path class="cls-2" d="M698,198.92a23.59,23.59,0,1,1,0-41.29,8.28,8.28,0,0,1,.89-1,6.55,6.55,0,0,1,11.16,4.67v34.06a6.52,6.52,0,0,1-6.55,6.55,6.21,6.21,0,0,1-4.61-1.94A6.33,6.33,0,0,1,698,198.92Zm-4.11-13.23a10.49,10.49,0,1,0-7.42,3.07A10.09,10.09,0,0,0,693.9,185.69Z"/><path class="cls-2" d="M727.48,139.5h28.3a6.81,6.81,0,1,1,0,13.62H734.3V163.6h16.24a6.82,6.82,0,1,1,0,13.63H734.3v17.82a6.82,6.82,0,1,1-13.63,0V146.31a6.79,6.79,0,0,1,6.81-6.81Z"/><path class="cls-2" d="M776.24,168.84v26.47a6.55,6.55,0,1,1-13.1,0V161.25a6.56,6.56,0,0,1,6.55-6.56q2.73,0,5.19,2.94a12.49,12.49,0,0,1,8.7-2.94c2.94,0,5.15.76,6.66,2.26a7.61,7.61,0,0,1,2.25,5.61,8.14,8.14,0,0,1-2,5.6,6.76,6.76,0,0,1-5.35,2.26,9.24,9.24,0,0,1-5.87-2C777.92,167.62,776.91,167.76,776.24,168.84Z"/><path class="cls-2" d="M809.91,137.82a6.83,6.83,0,1,1-4.82-2A6.57,6.57,0,0,1,809.91,137.82Zm1.73,57.49a6.55,6.55,0,1,1-13.1,0V161.25a6.55,6.55,0,1,1,13.1,0Z"/><path class="cls-2" d="M835.72,187.19a10.16,10.16,0,0,0,5.56,1.57,15.12,15.12,0,0,0,8.72-3.07q4.38-3.06,8.31,1t-1.65,9.62q-5.58,5.58-15.38,5.58a23.59,23.59,0,1,1,0-47.17q9.79,0,15.4,5.56a13.31,13.31,0,0,1,4.14,9,5.74,5.74,0,0,1-3,5.24Zm10.69-18.35a13.63,13.63,0,0,0-5.13-1,10,10,0,0,0-7.39,3,10.16,10.16,0,0,0-3.09,7.07Z"/><path class="cls-2" d="M880.08,175.66v19.65a6.55,6.55,0,1,1-13.1,0V161.25a6.54,6.54,0,0,1,6.55-6.56,6.44,6.44,0,0,1,4.66,1.89l.21.32a20.62,20.62,0,0,1,9.54-2.21,20.84,20.84,0,0,1,21,21v19.65a6.55,6.55,0,1,1-13.1,0V175.66a7.86,7.86,0,1,0-15.72,0Z"/><path class="cls-2" d="M949.8,198.92a23.62,23.62,0,1,1-11.53-44.23,23.1,23.1,0,0,1,10.48,2.36V145a6.55,6.55,0,1,1,13.1,0v50.31a6.52,6.52,0,0,1-6.55,6.55,6.21,6.21,0,0,1-4.61-1.94A6.33,6.33,0,0,1,949.8,198.92Zm-4.11-13.23a10.49,10.49,0,1,0-7.42,3.07A10.09,10.09,0,0,0,945.69,185.69Z"/><path class="cls-2" d="M342.33,175.9A335,335,0,0,1,268.42,172h-.11c1.61-16.18,5.43-33.52,21.13-41.62,16.81-8.68,37.71-4.8,55.41-1.46,8,1.5,9.39-11,1.45-12.53-29.71-5.6-66.49-7.88-82.79,23.32-7.29,13.94-7.78,30.44-8.89,45.79-1.09,15.1-2.27,31.64-11.9,44.08-9.17,11.84-24.34,18.06-39.07,18.52-16.42.51-32-6.81-44.35-17.22-26.11-22.05-41.29-61.71-29-94.78,6.16-16.54,18.69-30.84,35.35-37.28,19.89-7.68,42.26-2.44,62.24,2.06,7.91,1.78,9.3-10.76,1.45-12.52-19.32-4.36-39.83-8.64-59.51-3.92a71.52,71.52,0,0,0-41.8,29c-22.31,32.08-16.84,74.35,4.08,105.63,19.62,29.35,55,49.23,90.45,38.4,15.89-4.85,29.44-15.74,36.53-30.88,6.13-13.09,7.2-27.73,8.19-42a350.18,350.18,0,0,0,76.95,3.81C352.35,187.88,350.39,175.42,342.33,175.9Z"/><path class="cls-2" d="M163.54,132.43c3.05-1.52,8.63-3,10.73-5.77a5.5,5.5,0,0,0,.78-3.13c.29-3.75.42-6.78,1.54-10.42.33-1.07-1.27-1.8-1.6-.72a26,26,0,0,0-.75,3.29L169,111.34c-1-.83-2.89-3.14-4.36-3.28-.88-.08-1.2.36-1.77.9-1.71,1.6-3,4.32-4.36,6.26s-3.3,4.1-4.28,6.32c-.27.61-.57,1-.38,1.71.35,1.28,2.76,2.2,3.78,2.9l6.16,4.23-.83.4C161.94,131.28,162.53,132.93,163.54,132.43Z"/><path class="cls-2" d="M149.18,159.71c2.34-2.48,7-5.8,8-9.13a5.46,5.46,0,0,0-.35-3.21c-1-3.61-2-6.5-2.18-10.31-.06-1.11-1.81-1.24-1.75-.11a24.4,24.4,0,0,0,.45,3.34L147,138.05c-1.23-.43-3.8-1.94-5.23-1.56-.85.23-1,.75-1.34,1.46-1,2.1-1.34,5.1-1.92,7.38s-1.67,5-1.81,7.41c0,.67-.19,1.13.24,1.74.77,1.08,3.34,1.11,4.55,1.41l7.24,1.82-.64.67C147.28,159.19,148.41,160.53,149.18,159.71Z"/><path class="cls-2" d="M157.75,190.27c.2-3.4,1.68-9,.31-12.17a5.45,5.45,0,0,0-2.33-2.23,44.47,44.47,0,0,1-8.29-6.51c-.76-.81-2.19.21-1.42,1a25.15,25.15,0,0,0,2.49,2.27l-6.38,2.43c-1.22.46-4.16,1-5,2.16-.5.71-.28,1.21-.1,2,.55,2.28,2.25,4.77,3.28,6.89s1.92,4.89,3.36,6.85c.4.53.58,1,1.3,1.17,1.29.33,3.28-1.3,4.4-1.84l6.72-3.25L156,190C156,191.1,157.68,191.4,157.75,190.27Z"/><path class="cls-2" d="M209.42,225.14c-2.59-2.2-6.16-6.74-9.54-7.57a5.48,5.48,0,0,0-3.18.52c-3.55,1.22-6.39,2.31-10.18,2.72-1.11.12-1.15,1.87,0,1.75a25.3,25.3,0,0,0,3.32-.62q-1,3.28-1.9,6.55c-.37,1.26-1.74,3.9-1.29,5.31.27.83.81.95,1.53,1.27,2.15.93,5.16,1.07,7.47,1.52s5.07,1.41,7.5,1.43c.66,0,1.14.13,1.72-.33,1-.83.93-3.4,1.17-4.62l1.44-7.33.7.6C209,227.07,210.29,225.86,209.42,225.14Z"/><path class="cls-2" d="M178.47,214.65c-1.17-3.2-2-8.91-4.53-11.3a5.52,5.52,0,0,0-3-1.13,44,44,0,0,1-10.18-2.69c-1-.45-1.93,1.06-.89,1.51a25.48,25.48,0,0,0,3.18,1.1l-4.9,4.75c-.94.91-3.45,2.52-3.75,4-.18.86.22,1.23.7,1.86,1.4,1.88,4,3.5,5.73,5s3.7,3.73,5.8,5c.57.33.92.68,1.66.56,1.31-.2,2.49-2.49,3.3-3.42l4.89-5.65.31.87C177.14,216.12,178.85,215.71,178.47,214.65Z"/><path class="cls-2" d="M231,202.22c-3.11,1.4-8.74,2.67-10.93,5.37a5.42,5.42,0,0,0-.9,3.09c-.42,3.74-.66,6.77-1.92,10.37-.36,1,1.2,1.84,1.58.77a25.7,25.7,0,0,0,.86-3.26l5.1,4.53c1,.87,2.78,3.25,4.24,3.44.87.11,1.21-.32,1.8-.83,1.77-1.55,3.18-4.21,4.59-6.1s3.44-4,4.5-6.16c.3-.6.61-1,.44-1.7-.3-1.29-2.67-2.29-3.66-3l-6-4.45.85-.38C232.57,203.42,232,201.75,231,202.22Z"/><path class="cls-2" d="M105.11,101.66c-2.75,2-8,4.39-9.61,7.47a5.44,5.44,0,0,0-.25,3.22,44.23,44.23,0,0,1,.21,10.54c-.14,1.1,1.56,1.56,1.7.44a25.67,25.67,0,0,0,.19-3.37l5.91,3.4c1.14.65,3.38,2.62,4.85,2.51.87-.06,1.12-.55,1.59-1.18,1.42-1.87,2.27-4.76,3.26-6.9s2.57-4.59,3.17-6.94c.16-.65.4-1.07.08-1.75-.56-1.21-3.08-1.71-4.2-2.23l-6.78-3.15.75-.53C106.89,102.53,106,101,105.11,101.66Z"/><path class="cls-2" d="M131.1,75.18c-3.3.83-9.07,1.09-11.7,3.37A5.43,5.43,0,0,0,118,81.44c-1.07,3.6-1.84,6.54-3.71,9.86-.54,1,.86,2,1.42,1a27.19,27.19,0,0,0,1.42-3.06c1.41,1.79,2.82,3.57,4.22,5.36.82,1,2.17,3.68,3.57,4.13.84.26,1.25-.1,1.92-.51,2-1.21,3.88-3.58,5.59-5.19s4.09-3.31,5.52-5.27c.39-.54.77-.85.73-1.6-.07-1.33-2.23-2.73-3.08-3.63l-5.13-5.44.9-.21C132.43,76.64,132.19,74.9,131.1,75.18Z"/><path class="cls-2" d="M307.59,153c-2.92-1.74-7.2-5.62-10.66-5.87a5.42,5.42,0,0,0-3.06,1c-3.3,1.79-5.92,3.33-9.59,4.37-1.07.3-.82,2,.27,1.74a26.5,26.5,0,0,0,3.17-1.17q-.39,3.39-.79,6.78c-.15,1.3-1.06,4.13-.38,5.44.4.78.95.81,1.71,1,2.28.56,5.28.19,7.63.26s5.23.54,7.63.16c.66-.11,1.14-.06,1.64-.62.89-1,.35-3.5.39-4.74q.09-3.74.2-7.47l.79.48C307.5,154.94,308.56,153.54,307.59,153Z"/><path class="cls-2" d="M341.62,154.87c-2.92-1.74-7.2-5.62-10.66-5.87a5.49,5.49,0,0,0-3.06,1c-3.3,1.79-5.92,3.34-9.59,4.37-1.07.31-.82,2.05.27,1.74a24.88,24.88,0,0,0,3.17-1.17q-.39,3.39-.79,6.78c-.15,1.3-1.06,4.14-.38,5.44.41.78.95.81,1.72,1,2.27.56,5.27.2,7.62.26s5.23.55,7.63.16c.66-.1,1.14-.06,1.64-.61.89-1,.35-3.51.39-4.75q.09-3.73.2-7.47l.79.48C341.53,156.84,342.59,155.45,341.62,154.87Z"/><path class="cls-2" d="M288.09,224c2.05-2.71,6.38-6.53,7-9.95a5.38,5.38,0,0,0-.7-3.15c-1.41-3.48-2.65-6.25-3.27-10-.19-1.1-1.94-1-1.76.07a26.63,26.63,0,0,0,.81,3.28l-6.65-1.54c-1.28-.29-4-1.52-5.37-1-.82.31-.91.85-1.18,1.59-.81,2.2-.78,5.22-1.11,7.55s-1.12,5.14-1,7.56c0,.67-.06,1.14.43,1.7.89,1,3.45.74,4.68.91l7.4,1-.57.74C286.14,223.67,287.41,224.88,288.09,224Z"/></g></g></svg>